HIERARCHY
ROOT Hips
{
    OFFSET   0.000000   0.000000   0.000000
    CHANNELS 6 Xposition Yposition Zposition Zrotation Xrotation Yrotation
    JOINT Chest
    {
        OFFSET   0.000000   8.007230   0.000000
        CHANNELS 3 Zrotation Xrotation Yrotation
        JOINT Chest2
        {
            OFFSET   0.000000  22.077100   0.000000
            CHANNELS 3 Zrotation Xrotation Yrotation
            JOINT Neck
            {
                OFFSET   0.000000  23.254800  -0.000021
                CHANNELS 3 Zrotation Xrotation Yrotation
                JOINT Head
                {
                    OFFSET   0.000000  14.370000   1.956610
                    CHANNELS 3 Zrotation Xrotation Yrotation
                    End Site
                    {
                        OFFSET   0.000000  19.566000   0.000000
                    }
                }
            }
            JOINT LeftCollar
            {
                OFFSET   3.911900  19.017000  -0.467063
                CHANNELS 3 Zrotation Xrotation Yrotation
                JOINT LeftShoulder
                {
                    OFFSET  10.383700   0.000000   0.000000
                    CHANNELS 3 Zrotation Xrotation Yrotation
                    JOINT LeftElbow
                    {
                        OFFSET  26.662100   0.001529   0.000325
                        CHANNELS 3 Zrotation Xrotation Yrotation
                        JOINT LeftWrist
                        {
                            OFFSET  28.869000  -0.000011  -0.000096
                            CHANNELS 3 Zrotation Xrotation Yrotation
                            JOINT LeftFinger0
                            {
                                OFFSET   2.044650  -2.323460   3.252850
                                CHANNELS 3 Zrotation Xrotation Yrotation
                                JOINT LeftFinger01
                                {
                                    OFFSET   3.088130   0.000000   0.000000
                                    CHANNELS 3 Zrotation Xrotation Yrotation
                                    JOINT LeftFinger02
                                    {
                                        OFFSET   2.639460   0.000000   0.000000
                                        CHANNELS 3 Zrotation Xrotation Yrotation
                                        End Site
                                        {
                                            OFFSET   2.582190   0.000000   0.000000
                                        }
                                    }
                                }
                            }
                            JOINT LeftFinger1
                            {
                                OFFSET   8.364480   0.000000   3.252850
                                CHANNELS 3 Zrotation Xrotation Yrotation
                                JOINT LeftFinger11
                                {
                                    OFFSET   4.646930   0.000000   0.000000
                                    CHANNELS 3 Zrotation Xrotation Yrotation
                                    JOINT LeftFinger12
                                    {
                                        OFFSET   2.323460   0.000000   0.000000
                                        CHANNELS 3 Zrotation Xrotation Yrotation
                                        End Site
                                        {
                                            OFFSET   2.273050   0.000000   0.000000
                                        }
                                    }
                                }
                            }
                            JOINT LeftFinger2
                            {
                                OFFSET   8.364480   0.000016   1.078090
                                CHANNELS 3 Zrotation Xrotation Yrotation
                                JOINT LeftFinger21
                                {
                                    OFFSET   5.111620   0.000000   0.000000
                                    CHANNELS 3 Zrotation Xrotation Yrotation
                                    JOINT LeftFinger22
                                    {
                                        OFFSET   2.788160   0.000017   0.000000
                                        CHANNELS 3 Zrotation Xrotation Yrotation
                                        End Site
                                        {
                                            OFFSET   2.727660   0.000000   0.000000
                                        }
                                    }
                                }
                            }
                            JOINT LeftFinger3
                            {
                                OFFSET   7.899780   0.000015  -1.078090
                                CHANNELS 3 Zrotation Xrotation Yrotation
                                JOINT LeftFinger31
                                {
                                    OFFSET   4.646920   0.000000   0.000000
                                    CHANNELS 3 Zrotation Xrotation Yrotation
                                    JOINT LeftFinger32
                                    {
                                        OFFSET   2.323470   0.000000   0.000000
                                        CHANNELS 3 Zrotation Xrotation Yrotation
                                        End Site
                                        {
                                            OFFSET   2.273050   0.000000   0.000000
                                        }
                                    }
                                }
                            }
                            JOINT LeftFinger4
                            {
                                OFFSET   7.435090   0.000000  -3.252850
                                CHANNELS 3 Zrotation Xrotation Yrotation
                                JOINT LeftFinger41
                                {
                                    OFFSET   3.717550   0.000000   0.000000
                                    CHANNELS 3 Zrotation Xrotation Yrotation
                                    JOINT LeftFinger42
                                    {
                                        OFFSET   1.858760   0.000000   0.000000
                                        CHANNELS 3 Zrotation Xrotation Yrotation
                                        End Site
                                        {
                                            OFFSET   1.818440   0.000000   0.000000
                                        }
                                    }
                                }
                            }
                        }
                    }
                }
            }
            JOINT RightCollar
            {
                OFFSET  -3.911900  19.017000  -0.467062
                CHANNELS 3 Zrotation Xrotation Yrotation
                JOINT RightShoulder
                {
                    OFFSET -10.383700   0.000015   0.000000
                    CHANNELS 3 Zrotation Xrotation Yrotation
                    JOINT RightElbow
                    {
                        OFFSET -26.662100   0.001341   0.000385
                        CHANNELS 3 Zrotation Xrotation Yrotation
                        JOINT RightWrist
                        {
                            OFFSET -28.869000   0.000025  -0.000080
                            CHANNELS 3 Zrotation Xrotation Yrotation
                            JOINT RightFinger0
                            {
                                OFFSET  -2.044650  -2.323490   3.252850
                                CHANNELS 3 Zrotation Xrotation Yrotation
                                JOINT RightFinger01
                                {
                                    OFFSET  -3.088130   0.000000   0.000000
                                    CHANNELS 3 Zrotation Xrotation Yrotation
                                    JOINT RightFinger02
                                    {
                                        OFFSET  -2.639460   0.000000   0.000000
                                        CHANNELS 3 Zrotation Xrotation Yrotation
                                        End Site
                                        {
                                            OFFSET  -2.582190   0.000000   0.000000
                                        }
                                    }
                                }
                            }
                            JOINT RightFinger1
                            {
                                OFFSET  -8.364480   0.000000   3.252850
                                CHANNELS 3 Zrotation Xrotation Yrotation
                                JOINT RightFinger11
                                {
                                    OFFSET  -4.646930   0.000000   0.000000
                                    CHANNELS 3 Zrotation Xrotation Yrotation
                                    JOINT RightFinger12
                                    {
                                        OFFSET  -2.323470   0.000000   0.000000
                                        CHANNELS 3 Zrotation Xrotation Yrotation
                                        End Site
                                        {
                                            OFFSET  -2.273050   0.000000   0.000000
                                        }
                                    }
                                }
                            }
                            JOINT RightFinger2
                            {
                                OFFSET  -8.364480   0.000000   1.078090
                                CHANNELS 3 Zrotation Xrotation Yrotation
                                JOINT RightFinger21
                                {
                                    OFFSET  -5.111610   0.000000   0.000000
                                    CHANNELS 3 Zrotation Xrotation Yrotation
                                    JOINT RightFinger22
                                    {
                                        OFFSET  -2.788160   0.000000   0.000000
                                        CHANNELS 3 Zrotation Xrotation Yrotation
                                        End Site
                                        {
                                            OFFSET  -2.727660   0.000000   0.000000
                                        }
                                    }
                                }
                            }
                            JOINT RightFinger3
                            {
                                OFFSET  -7.899780   0.000000  -1.078090
                                CHANNELS 3 Zrotation Xrotation Yrotation
                                JOINT RightFinger31
                                {
                                    OFFSET  -4.646920   0.000000   0.000000
                                    CHANNELS 3 Zrotation Xrotation Yrotation
                                    JOINT RightFinger32
                                    {
                                        OFFSET  -2.323470   0.000000   0.000000
                                        CHANNELS 3 Zrotation Xrotation Yrotation
                                        End Site
                                        {
                                            OFFSET  -2.273050   0.000000   0.000000
                                        }
                                    }
                                }
                            }
                            JOINT RightFinger4
                            {
                                OFFSET  -7.435090   0.000000  -3.252850
                                CHANNELS 3 Zrotation Xrotation Yrotation
                                JOINT RightFinger41
                                {
                                    OFFSET  -3.717550   0.000000   0.000000
                                    CHANNELS 3 Zrotation Xrotation Yrotation
                                    JOINT RightFinger42
                                    {
                                        OFFSET  -1.858770   0.000000   0.000000
                                        CHANNELS 3 Zrotation Xrotation Yrotation
                                        End Site
                                        {
                                            OFFSET  -1.818440   0.000000   0.000000
                                        }
                                    }
                                }
                            }
                        }
                    }
                }
            }
        }
    }
    JOINT LeftHip
    {
        OFFSET   9.783010   0.000000   0.000000
        CHANNELS 3 Zrotation Xrotation Yrotation
        JOINT LeftKnee
        {
            OFFSET   0.000070 -41.789100   0.000028
            CHANNELS 3 Zrotation Xrotation Yrotation
            JOINT LeftAnkle
            {
                OFFSET   0.000087 -41.133200  -0.000100
                CHANNELS 3 Zrotation Xrotation Yrotation
                JOINT LeftToe
                {
                    OFFSET   0.000000  -6.358960  14.674500
                    CHANNELS 3 Zrotation Xrotation Yrotation
                    End Site
                    {
                        OFFSET   0.000000   0.000000   3.913200
                    }
                }
            }
        }
    }
    JOINT RightHip
    {
        OFFSET  -9.783020   0.000000   0.000000
        CHANNELS 3 Zrotation Xrotation Yrotation
        JOINT RightKnee
        {
            OFFSET   0.000044 -41.789100  -0.000870
            CHANNELS 3 Zrotation Xrotation Yrotation
            JOINT RightAnkle
            {
                OFFSET  -0.000090 -41.133200  -0.000245
                CHANNELS 3 Zrotation Xrotation Yrotation
                JOINT RightToe
                {
                    OFFSET   0.000000  -6.358960  14.674500
                    CHANNELS 3 Zrotation Xrotation Yrotation
                    End Site
                    {
                        OFFSET   0.000000   0.000000   3.913200
                    }
                }
            }
        }
    }
}
MOTION
Frames: 6
Frame Time:   0.016667
 -0.717334  90.066100  -1.000020  -0.918868   0.288400  -0.639113  -0.144719  -0.111247   0.238869  -0.288968  -0.223091   0.477448   3.153480  -0.455176   0.029531   5.181160  -0.914945   0.333025   0.286399   0.598667   3.767670 -78.729600  11.452900   4.471880  -2.687400  -3.255760 -16.727300  15.316200   5.480820   7.661710  42.061000  34.460100 -71.667500 -25.565400  -0.003394   0.007591  -7.773790  -0.004357   0.003316 -33.335100   7.085600 -10.605100 -27.812500  -0.009987  -0.001601 -19.474600  -0.003426   0.003775 -29.583300   2.888590  -5.055960 -44.568000  -0.000478  -0.003340 -29.682300  -0.009735  -0.003734 -28.380100   2.776850  -5.115150 -36.289800  -0.008217  -0.007746 -24.157900  -0.001593  -0.007145 -34.383700   0.384605  -0.561527 -51.578400  -0.009803  -0.008247 -34.351200   0.005190  -0.005884   4.807800   1.888010   1.142500  76.643900   5.320910  -6.017600   1.408750  -2.890740  16.166900 -16.850900 -13.057700   6.159090 -36.734200  33.146600  68.201300  33.506000   0.002538  -0.001577  11.753000   0.001399  -0.006497  37.252800   3.874370   5.077330  30.620200   0.001981  -0.003661  21.434100  -0.002296  -0.002336  29.409000  -2.311930  -4.093350  44.237500   0.001009  -0.005690  29.462200  -0.004585  -0.011278  30.551000  -2.393110  -4.046480  45.953300  -0.001377  -0.003864  30.604800  -0.006471  -0.005709  45.189200  -3.338190  -3.310640  67.928500  -0.012009  -0.004266  45.240400  -0.003513  -0.006397   0.645712  -0.193090   1.879440   0.942187   0.895265  11.523400  -5.071630  -3.110770   4.880410   0.000000   0.000000  -0.000000   2.508670  -0.601471  -8.132830  -1.524820   2.041860  -7.027310  -8.997720   1.255490   2.202410   0.000000   0.000000  -0.000000
 -0.717362  90.066000  -0.993485  -0.918946   0.278538  -0.647591  -0.146819  -0.098707   0.235802  -0.293229  -0.198016   0.471356   3.193980  -0.480906   0.029875   5.248600  -0.965976   0.334133   0.286215   0.604857   3.776140 -78.716900  11.499400   4.450040  -2.695410  -3.283940 -16.723800  15.323500   5.481100   7.657190  42.065400  34.466900 -71.681800 -25.561700  -0.003373   0.007577  -7.773740  -0.004356   0.003323 -33.334000   7.085410 -10.613400 -27.812400  -0.009987  -0.001590 -19.474600  -0.003423   0.003784 -29.582900   2.888560  -5.064370 -44.568100  -0.000465  -0.003336 -29.682300  -0.009737  -0.003734 -28.379700   2.776960  -5.123560 -36.282000  -0.008204  -0.007734 -24.157900  -0.001592  -0.007135 -34.374200   0.384606  -0.561796 -51.562800  -0.009807  -0.008241 -34.341600   0.005186  -0.005877   4.816780   1.888150   1.146160  76.634400   5.334080  -6.019550   1.419000  -2.890440  16.188800 -16.842100 -13.085400   6.173190 -36.714000  33.133300  68.214300  33.524800   0.002534  -0.001597  11.762400   0.001398  -0.006496  37.272400   3.869880   5.067930  30.635800   0.001969  -0.003660  21.445000  -0.002295  -0.002331  29.419500  -2.320320  -4.106420  44.253800   0.001003  -0.005679  29.473000  -0.004589  -0.011283  30.564300  -2.401920  -4.059300  45.973800  -0.001384  -0.003845  30.618500  -0.006475  -0.005712  45.210400  -3.350340  -3.320410  67.960900  -0.012006  -0.004261  45.262000  -0.003505  -0.006385   0.645629  -0.179968   1.879680   0.938140   0.891571  11.533000  -5.069260  -3.112710   4.881340  -0.000000   0.000000  -0.000000   2.510660  -0.583898  -8.122200  -1.525560   2.035310  -7.036340  -8.998050   1.255880   2.211540  -0.000000   0.000000   0.000000
 -0.717389  90.065900  -0.982727  -0.919074   0.262767  -0.664305  -0.151814  -0.077788   0.232735  -0.303308  -0.156196   0.465264   3.269430  -0.525465   0.031217   5.373740  -1.054480   0.341864   0.287682   0.614482   3.784620 -78.693500  11.572700   4.416940  -2.707070  -3.324300 -16.720500  15.333800   5.481450   7.648120  42.069700  34.473800 -71.696100 -25.555800  -0.003336   0.007564  -7.773690  -0.004351   0.003329 -33.332700   7.085220 -10.621700 -27.812200  -0.009985  -0.001561 -19.474500  -0.003415   0.003808 -29.582600   2.888520  -5.072770 -44.568200  -0.000431  -0.003328 -29.682400  -0.009742  -0.003733 -28.379300   2.777120  -5.131960 -36.273100  -0.008174  -0.007707 -24.157900  -0.001589  -0.007110 -34.362800   0.384608  -0.562465 -51.547000  -0.009816  -0.008220 -34.330300   0.005178  -0.005861   4.831300   1.888300   1.149820  76.621500   5.355350  -6.023390   1.437040  -2.889830  16.230800 -16.816100 -13.118000   6.199310 -36.688900  33.123400  68.232600  33.543600   0.002530  -0.001618  11.771800   0.001398  -0.006489  37.302900   3.862070   5.052220  30.660000   0.001953  -0.003656  21.462000  -0.002294  -0.002315  29.429200  -2.333570  -4.128150  44.270000   0.000993  -0.005656  29.483800  -0.004599  -0.011295  30.576800  -2.415860  -4.080620  45.994300  -0.001402  -0.003801  30.632200  -0.006486  -0.005716  45.230700  -3.369730  -3.336990  67.993400  -0.012000  -0.004247  45.283600  -0.003487  -0.006354   0.645174  -0.155515   1.879920   0.932471   0.884522  11.549500  -5.065160  -3.118210   4.885380  -0.000000   0.000000  -0.000000   2.511800  -0.556349  -8.111560  -1.526780   2.025630  -7.045340  -8.998650   1.256270   2.228290   0.000000   0.000000  -0.000000
 -0.716003  90.065900  -0.974048  -0.919159   0.251526  -0.683501  -0.159030  -0.061805   0.234221  -0.317805  -0.124266   0.468263   3.345430  -0.563688   0.033910   5.498920  -1.130650   0.361512   0.293967   0.620897   3.783560 -78.670600  11.621300   4.399360  -2.713440  -3.340610 -16.728300  15.337500   5.480810   7.636330  42.068900  34.470300 -71.689100 -25.550600  -0.003302   0.007564  -7.773700  -0.004328   0.003329 -33.332800   7.084860 -10.621100 -27.812100  -0.009975  -0.001512 -19.474500  -0.003406   0.003844 -29.582700   2.888390  -5.072460 -44.568300  -0.000376  -0.003317 -29.682500  -0.009750  -0.003728 -28.379400   2.777210  -5.131670 -36.272000  -0.008132  -0.007669 -24.157700  -0.001587  -0.007071 -34.360900   0.385228  -0.563510 -51.546800  -0.009827  -0.008183 -34.328500   0.005165  -0.005838   4.841530   1.885870   1.144300  76.618800   5.369930  -6.028610   1.449810  -2.880020  16.275000 -16.765100 -13.123300   6.228640 -36.688200  33.135200  68.247700  33.543300   0.002535  -0.001613  11.771600   0.001398  -0.006467  37.327000   3.854840   5.036400  30.679100   0.001947  -0.003649  21.475400  -0.002302  -0.002290  29.420900  -2.342770  -4.145820  44.258900   0.000980  -0.005626  29.476400  -0.004614  -0.011311  30.569900  -2.425580  -4.098000  45.985300  -0.001430  -0.003738  30.626200  -0.006507  -0.005721  45.224900  -3.383680  -3.351220  67.986200  -0.011995  -0.004223  45.278800  -0.003461  -0.006306   0.643078  -0.123314   1.879890   0.930100   0.874814  11.563100  -5.061850  -3.127810   4.894880   0.000000   0.000000   0.000000   2.507370  -0.538280  -8.113240  -1.527810   2.020740  -7.037740  -8.999210   1.256110   2.244200   0.000000   0.000000   0.000000
 -0.713603  90.065900  -0.966262  -0.919242   0.241119  -0.705004  -0.167892  -0.044209   0.237212  -0.335598  -0.089121   0.474298   3.433040  -0.605804   0.037511   5.643060  -1.214710   0.396741   0.303179   0.626136   3.781780 -78.643400  11.666500   4.381840  -2.721650  -3.352830 -16.746000  15.340400   5.477240   7.625170  42.068100  34.466800 -71.682100 -25.547600  -0.003262   0.007563  -7.773790  -0.004295   0.003329 -33.333100   7.084200 -10.619800 -27.812100  -0.009959  -0.001450 -19.474500  -0.003394   0.003893 -29.583000   2.887500  -5.070320 -44.568500  -0.000309  -0.003302 -29.682600  -0.009761  -0.003720 -28.379600   2.777250  -5.129650 -36.271700  -0.008078  -0.007619 -24.157400  -0.001584  -0.007022 -34.360300   0.386287  -0.564720 -51.546700  -0.009842  -0.008135 -34.327900   0.005149  -0.005807   4.852560   1.880790   1.136430  76.616700   5.385820  -6.032790   1.463920  -2.863850  16.327300 -16.711100 -13.123500   6.255930 -36.708100  33.158000  68.261300  33.541100   0.002544  -0.001607  11.770500   0.001398  -0.006437  37.340400   3.847840   5.026880  30.689500   0.001940  -0.003641  21.482700  -0.002317  -0.002259  29.403900  -2.350680  -4.162630  44.234000   0.000963  -0.005590  29.459900  -0.004634  -0.011331  30.557000  -2.434060  -4.114500  45.966700  -0.001468  -0.003668  30.613800  -0.006535  -0.005726  45.212800  -3.396050  -3.365060  67.968900  -0.011986  -0.004193  45.267300  -0.003432  -0.006246   0.639183  -0.102444   1.879650   0.929210   0.868431  11.579100  -5.057770  -3.139280   4.905210   0.000000   0.000000   0.000000   2.502110  -0.521708  -8.115820  -1.528610   2.016920  -7.030140  -8.999800   1.255110   2.263440   0.000000   0.000000   0.000000
 -0.711638  90.066400  -0.960696  -0.919319   0.232148  -0.727028  -0.177744  -0.022864   0.240655  -0.355392  -0.046479   0.481235   3.533570  -0.652376   0.041709   5.808880  -1.307900   0.450326   0.313612   0.629108   3.781040 -78.610500  11.712800   4.357210  -2.734650  -3.369580 -16.770100  15.345100   5.468540   7.619050  42.067200  34.466800 -71.682200 -25.554100  -0.003211   0.007557  -7.777090  -0.004269   0.003332 -33.334700   7.083730 -10.618400 -27.813300  -0.009947  -0.001379 -19.474500  -0.003374   0.003953 -29.583700   2.883910  -5.063910 -44.568500  -0.000235  -0.003286 -29.682700  -0.009773  -0.003712 -28.380200   2.775680  -5.123220 -36.271300  -0.008012  -0.007556 -24.157100  -0.001581  -0.006965 -34.359500   0.387187  -0.565823 -51.544300  -0.009862  -0.008083 -34.327100   0.005127  -0.005767   4.866330   1.873730   1.133190  76.609700   5.406160  -6.033890   1.486680  -2.850640  16.389500 -16.674800 -13.106600   6.272240 -36.746000  33.197900  68.265300  33.533500   0.002553  -0.001622  11.766700   0.001405  -0.006408  37.306900   3.841140   5.028620  30.661900   0.001923  -0.003638  21.463300  -0.002333  -0.002226  29.378400  -2.358140  -4.180520  44.196800   0.000936  -0.005546  29.435100  -0.004658  -0.011358  30.538000  -2.442390  -4.131830  45.939200  -0.001515  -0.003602  30.595500  -0.006568  -0.005732  45.192600  -3.408340  -3.379890  67.939700  -0.011974  -0.004163  45.247900  -0.003405  -0.006176   0.633092  -0.115809   1.875420   0.928208   0.902612  11.600300  -5.052170  -3.150600   4.911950   0.000000   0.000000   0.000000   2.498720  -0.505705  -8.117710  -1.528820   2.013150  -7.030490  -9.000290   1.250000   2.289400   0.000000   0.000000   0.000000
